<svg width="28" height="28" viewBox="0 0 28 28" fill="none" xmlns="http://www.w3.org/2000/svg">
<path d="M14 2.33325C7.56004 2.33325 2.33337 7.55992 2.33337 13.9999C2.33337 20.4399 7.56004 25.6666 14 25.6666C20.44 25.6666 25.6667 20.4399 25.6667 13.9999C25.6667 7.55992 20.44 2.33325 14 2.33325ZM8.57504 21.5833C10.1034 20.4866 11.97 19.8333 14 19.8333C16.03 19.8333 17.8967 20.4866 19.425 21.5833C17.8967 22.6799 16.03 23.3333 14 23.3333C11.97 23.3333 10.1034 22.6799 8.57504 21.5833ZM21.1634 19.9733C19.1198 18.3699 16.5975 17.4985 14 17.4985C11.4026 17.4985 8.88025 18.3699 6.83671 19.9733C5.43312 18.2995 4.66472 16.1843 4.66671 13.9999C4.66671 8.84325 8.84337 4.66659 14 4.66659C19.1567 4.66659 23.3334 8.84325 23.3334 13.9999C23.3334 16.2749 22.5167 18.3516 21.1634 19.9733Z" fill="black"/>
<path d="M14 7C11.7483 7 9.91663 8.83167 9.91663 11.0833C9.91663 13.335 11.7483 15.1667 14 15.1667C16.2516 15.1667 18.0833 13.335 18.0833 11.0833C18.0833 8.83167 16.2516 7 14 7ZM14 12.8333C13.0316 12.8333 12.25 12.0517 12.25 11.0833C12.25 10.115 13.0316 9.33333 14 9.33333C14.9683 9.33333 15.75 10.115 15.75 11.0833C15.75 12.0517 14.9683 12.8333 14 12.8333Z" fill="black"/>
</svg>
