<svg width="22" height="25" viewBox="0 0 22 25" fill="none" xmlns="http://www.w3.org/2000/svg">
<path d="M1.91641 9.87645C1.96195 9.309 2.21956 8.77952 2.63793 8.39346C3.0563 8.00741 3.60473 7.7931 4.174 7.79321H17.826C18.3953 7.7931 18.9437 8.00741 19.3621 8.39346C19.7804 8.77952 20.038 9.309 20.0836 9.87645L20.9927 21.1984C21.0177 21.51 20.978 21.8233 20.8759 22.1188C20.7739 22.4142 20.6118 22.6853 20.3998 22.9151C20.1879 23.1448 19.9306 23.3282 19.6443 23.4536C19.358 23.579 19.0489 23.6438 18.7363 23.6439H3.26372C2.95115 23.6438 2.64198 23.579 2.35568 23.4536C2.06938 23.3282 1.81215 23.1448 1.60018 22.9151C1.38822 22.6853 1.22611 22.4142 1.12407 22.1188C1.02202 21.8233 0.982252 21.51 1.00726 21.1984L1.91641 9.87645V9.87645Z" stroke="black" stroke-width="2" stroke-linecap="round" stroke-linejoin="round"/>
<path d="M15.5287 11.1897V5.52877C15.5287 4.32767 15.0516 3.17576 14.2023 2.32645C13.353 1.47714 12.2011 1 11 1C9.79886 1 8.64695 1.47714 7.79764 2.32645C6.94833 3.17576 6.47119 4.32767 6.47119 5.52877V11.1897" stroke="black" stroke-width="2" stroke-linecap="round" stroke-linejoin="round"/>
</svg>
