<svg width="150" height="34" viewBox="0 0 150 34" fill="none" xmlns="http://www.w3.org/2000/svg">
<rect width="150" height="33.4821" fill="#F5F5F5"/>
<path d="M20.8259 18.75C21.8303 18.75 22.7143 18.2009 23.1696 17.3705L27.9643 8.67854C28.4598 7.79461 27.817 6.69639 26.7991 6.69639H6.97767L5.71874 4.01782H1.33928V6.69639H4.01785L8.83928 16.8616L7.03124 20.1294C6.05356 21.9241 7.33928 24.1071 9.37499 24.1071H25.4464V21.4285H9.37499L10.8482 18.75H20.8259ZM8.24999 9.37497H24.5223L20.8259 16.0714H11.4241L8.24999 9.37497ZM9.37499 25.4464C7.90178 25.4464 6.70981 26.6518 6.70981 28.125C6.70981 29.5982 7.90178 30.8035 9.37499 30.8035C10.8482 30.8035 12.0536 29.5982 12.0536 28.125C12.0536 26.6518 10.8482 25.4464 9.37499 25.4464ZM22.7678 25.4464C21.2946 25.4464 20.1027 26.6518 20.1027 28.125C20.1027 29.5982 21.2946 30.8035 22.7678 30.8035C24.2411 30.8035 25.4464 29.5982 25.4464 28.125C25.4464 26.6518 24.2411 25.4464 22.7678 25.4464Z" fill="black"/>
<path d="M33.8545 24.1072V7.23218H36.4098V14.4643L43.0634 7.23218H46.2214L39.9777 13.9581L46.3661 24.1072H43.2562L38.1455 15.9107L36.4098 17.7911V24.1072H33.8545ZM52.1037 24.3965C51.0912 24.3965 50.2555 24.2277 49.5966 23.8902C48.9376 23.5527 48.4475 23.1107 48.126 22.5643C47.8046 22.0018 47.6439 21.3911 47.6439 20.7322C47.6439 19.575 48.0939 18.659 48.9939 17.984C49.8939 17.309 51.1796 16.9715 52.851 16.9715H55.985V16.7545C55.985 15.8224 55.7278 15.1232 55.2135 14.6572C54.7153 14.1911 54.0644 13.9581 53.2608 13.9581C52.5537 13.9581 51.935 14.1349 51.4046 14.4884C50.8903 14.8259 50.5769 15.3322 50.4644 16.0072H47.9091C47.9894 15.1393 48.2787 14.4 48.7769 13.7893C49.2912 13.1625 49.9341 12.6884 50.7055 12.367C51.493 12.0295 52.3528 11.8607 53.285 11.8607C54.9564 11.8607 56.2501 12.3027 57.1662 13.1866C58.0823 14.0545 58.5403 15.2438 58.5403 16.7545V24.1072H56.3225L56.1055 22.0581C55.768 22.717 55.2778 23.2715 54.635 23.7215C53.9921 24.1715 53.1483 24.3965 52.1037 24.3965ZM52.61 22.3232C53.301 22.3232 53.8796 22.1625 54.3457 21.8411C54.8278 21.5036 55.1975 21.0616 55.4546 20.5152C55.7278 19.9688 55.8966 19.3661 55.9608 18.7072H53.1162C52.1037 18.7072 51.3805 18.884 50.9466 19.2375C50.5287 19.5911 50.3198 20.0331 50.3198 20.5634C50.3198 21.1099 50.5207 21.5438 50.9225 21.8652C51.3403 22.1706 51.9028 22.3232 52.61 22.3232ZM61.7609 24.1072V12.15H64.027L64.2439 13.8375C64.6296 13.2268 65.1359 12.7447 65.7627 12.3911C66.4055 12.0375 67.1448 11.8607 67.9805 11.8607C69.877 11.8607 71.1948 12.6081 71.9341 14.1027C72.368 13.4116 72.9466 12.8652 73.6698 12.4634C74.4091 12.0616 75.2046 11.8607 76.0564 11.8607C77.5511 11.8607 78.7243 12.3107 79.5761 13.2107C80.4279 14.1107 80.8537 15.4527 80.8537 17.2366V24.1072H78.2984V17.5018C78.2984 15.1875 77.4145 14.0304 75.6466 14.0304C74.7466 14.0304 74.0073 14.3679 73.4287 15.0429C72.8662 15.7179 72.585 16.6822 72.585 17.9357V24.1072H70.0296V17.5018C70.0296 15.1875 69.1377 14.0304 67.3537 14.0304C66.4698 14.0304 65.7386 14.3679 65.16 15.0429C64.5975 15.7179 64.3162 16.6822 64.3162 17.9357V24.1072H61.7609ZM84.1809 24.1072V7.23218H89.6533C91.63 7.23218 93.2533 7.57771 94.5229 8.26878C95.8086 8.95986 96.7568 9.94021 97.3675 11.2099C97.9943 12.4634 98.3077 13.9581 98.3077 15.6938C98.3077 17.4134 97.9943 18.9081 97.3675 20.1777C96.7568 21.4313 95.8086 22.4036 94.5229 23.0947C93.2533 23.7697 91.63 24.1072 89.6533 24.1072H84.1809ZM86.7363 21.9375H89.5568C91.0836 21.9375 92.289 21.6884 93.1729 21.1902C94.0729 20.692 94.7158 19.9768 95.1015 19.0447C95.5033 18.1125 95.7041 16.9956 95.7041 15.6938C95.7041 14.392 95.5033 13.267 95.1015 12.3188C94.7158 11.3706 94.0729 10.6474 93.1729 10.1491C92.289 9.63486 91.0836 9.37771 89.5568 9.37771H86.7363V21.9375ZM105.326 24.3965C104.313 24.3965 103.478 24.2277 102.819 23.8902C102.16 23.5527 101.67 23.1107 101.348 22.5643C101.027 22.0018 100.866 21.3911 100.866 20.7322C100.866 19.575 101.316 18.659 102.216 17.984C103.116 17.309 104.402 16.9715 106.073 16.9715H109.207V16.7545C109.207 15.8224 108.95 15.1232 108.436 14.6572C107.938 14.1911 107.287 13.9581 106.483 13.9581C105.776 13.9581 105.157 14.1349 104.627 14.4884C104.113 14.8259 103.799 15.3322 103.687 16.0072H101.131C101.212 15.1393 101.501 14.4 101.999 13.7893C102.513 13.1625 103.156 12.6884 103.928 12.367C104.715 12.0295 105.575 11.8607 106.507 11.8607C108.179 11.8607 109.472 12.3027 110.388 13.1866C111.305 14.0545 111.763 15.2438 111.763 16.7545V24.1072H109.545L109.328 22.0581C108.99 22.717 108.5 23.2715 107.857 23.7215C107.214 24.1715 106.371 24.3965 105.326 24.3965ZM105.832 22.3232C106.523 22.3232 107.102 22.1625 107.568 21.8411C108.05 21.5036 108.42 21.0616 108.677 20.5152C108.95 19.9688 109.119 19.3661 109.183 18.7072H106.338C105.326 18.7072 104.603 18.884 104.169 19.2375C103.751 19.5911 103.542 20.0331 103.542 20.5634C103.542 21.1099 103.743 21.5438 104.145 21.8652C104.563 22.1706 105.125 22.3232 105.832 22.3232ZM119.033 24.3965C118.021 24.3965 117.185 24.2277 116.526 23.8902C115.867 23.5527 115.377 23.1107 115.055 22.5643C114.734 22.0018 114.573 21.3911 114.573 20.7322C114.573 19.575 115.023 18.659 115.923 17.984C116.823 17.309 118.109 16.9715 119.78 16.9715H122.914V16.7545C122.914 15.8224 122.657 15.1232 122.143 14.6572C121.645 14.1911 120.994 13.9581 120.19 13.9581C119.483 13.9581 118.864 14.1349 118.334 14.4884C117.82 14.8259 117.506 15.3322 117.394 16.0072H114.838C114.919 15.1393 115.208 14.4 115.706 13.7893C116.221 13.1625 116.863 12.6884 117.635 12.367C118.422 12.0295 119.282 11.8607 120.214 11.8607C121.886 11.8607 123.179 12.3027 124.096 13.1866C125.012 14.0545 125.47 15.2438 125.47 16.7545V24.1072H123.252L123.035 22.0581C122.697 22.717 122.207 23.2715 121.564 23.7215C120.921 24.1715 120.078 24.3965 119.033 24.3965ZM119.539 22.3232C120.23 22.3232 120.809 22.1625 121.275 21.8411C121.757 21.5036 122.127 21.0616 122.384 20.5152C122.657 19.9688 122.826 19.3661 122.89 18.7072H120.046C119.033 18.7072 118.31 18.884 117.876 19.2375C117.458 19.5911 117.249 20.0331 117.249 20.5634C117.249 21.1099 117.45 21.5438 117.852 21.8652C118.27 22.1706 118.832 22.3232 119.539 22.3232ZM128.69 24.1072V12.15H130.956L131.173 13.8375C131.559 13.2268 132.065 12.7447 132.692 12.3911C133.335 12.0375 134.075 11.8607 134.91 11.8607C136.807 11.8607 138.125 12.6081 138.864 14.1027C139.298 13.4116 139.876 12.8652 140.6 12.4634C141.339 12.0616 142.134 11.8607 142.986 11.8607C144.481 11.8607 145.654 12.3107 146.506 13.2107C147.358 14.1107 147.783 15.4527 147.783 17.2366V24.1072H145.228V17.5018C145.228 15.1875 144.344 14.0304 142.576 14.0304C141.676 14.0304 140.937 14.3679 140.358 15.0429C139.796 15.7179 139.515 16.6822 139.515 17.9357V24.1072H136.959V17.5018C136.959 15.1875 136.067 14.0304 134.283 14.0304C133.399 14.0304 132.668 14.3679 132.089 15.0429C131.527 15.7179 131.246 16.6822 131.246 17.9357V24.1072H128.69Z" fill="black"/>
</svg>
